<svg width="100" height="73" viewBox="0 0 100 73" fill="none" xmlns="http://www.w3.org/2000/svg">
<path d="M45.5531 21.4629C42.5856 22.0932 39.4431 21.9049 36.5751 20.9227C34.6415 20.2605 32.7761 19.235 30.7305 19.1616C27.3028 19.0387 24.1675 21.9368 23.6832 25.2847C23.1218 29.1711 25.7602 32.8542 29.1718 34.5614C33.0532 36.5046 37.5159 35.4958 40.9068 33.0531C43.6645 31.0666 45.7505 28.3649 48.0822 25.9434C50.5711 23.3592 52.9746 20.6964 55.3249 17.9902C57.2362 15.7898 59.4845 13.7608 62.2655 12.7052C65.0036 11.6664 68.0817 11.662 70.9172 12.4037C75.049 13.4841 78.7484 16.1743 80.9016 19.815C83.0551 23.4547 83.603 28.0104 82.2488 32.0073C80.681 36.6354 76.8795 40.1185 73.3667 43.556C69.259 47.5749 65.356 51.814 60.9294 55.4902C58.3061 57.6694 55.3528 59.7062 51.9539 60.165C49.0068 60.563 46.0143 59.7229 43.3282 58.4641C38.9705 56.4218 34.4084 52.6301 30.7753 49.4977C31.0578 49.7418 33.7295 49.4845 34.1707 49.4872C36.1894 49.4969 38.1652 49.3476 40.1319 49.8515C42.7775 50.5295 45.1516 51.8405 47.928 51.9882C52.2642 52.218 56.2112 50.2271 59.2793 47.3221C62.6379 44.142 65.9965 40.9621 69.3559 37.7812C72.1648 35.121 75.1907 31.9578 75.0095 28.1218C74.8365 24.4404 71.2591 20.8856 67.5219 20.6787C63.314 20.4471 60.1849 23.9312 57.5062 26.6427C54.177 30.0119 50.7817 33.3281 47.4795 36.7167C44.1425 40.1418 40.3956 43.4596 35.4101 43.9378C30.5107 44.4082 25.8885 42.5799 22.3209 39.3265C18.1695 35.5409 15.5499 29.8156 16.5893 24.337C17.157 21.3444 18.7695 18.5923 20.9281 16.4157C22.894 14.4336 25.3683 12.8785 28.118 12.3003C31.5448 11.5798 35.1922 12.4365 38.2028 14.2037C41.2026 15.9637 43.6165 18.5707 45.5688 21.4239C45.579 21.4387 45.5707 21.4592 45.5531 21.4629Z" fill="white"/>
<path d="M21.9984 54.8969C21.9984 58.2446 19.2452 60.9589 15.849 60.9589C12.4529 60.9589 9.69971 58.2446 9.69971 54.8969C9.69971 51.5489 12.4529 48.835 15.849 48.835C19.2452 48.835 21.9984 51.5489 21.9984 54.8969Z" fill="#FF1F26"/>
</svg>
