<svg width="36" height="36" viewBox="0 0 36 36" fill="none" xmlns="http://www.w3.org/2000/svg">
<path d="M5.52974 8.58225C5.46974 6.849 6.82049 5.25 8.64675 5.25H27.3562C29.1825 5.25 30.5332 6.849 30.4725 8.58225C30.4147 10.248 30.4897 12.405 31.0327 14.1645C31.5772 15.9292 32.496 17.0445 34.0005 17.1877V18.813C32.496 18.9562 31.578 20.0715 31.0327 21.8362C30.4897 23.595 30.4147 25.7527 30.4725 27.4185C30.5325 29.151 29.1817 30.75 27.3562 30.75H8.64675C6.82124 30.75 5.46974 29.151 5.53049 27.4177C5.58824 25.752 5.51324 23.595 4.97024 21.8355C4.42574 20.0708 3.50474 18.9555 2.00024 18.8123V17.187C3.50474 17.0438 4.42499 15.9285 4.97024 14.1638C5.51249 12.405 5.58824 10.248 5.52974 8.58225Z" fill="#7C4DFF"/>
<path d="M20.3047 17.5978V17.5768C21.6944 17.3368 22.7789 16.0341 22.7789 14.5993C22.7789 13.5853 22.3889 12.7258 21.6509 12.1153C20.9152 11.5063 19.8832 11.1846 18.6652 11.1846H13.0874V24.8098H18.6937C20.1502 24.8098 21.3599 24.4543 22.1909 23.7808C23.0227 23.1066 23.4629 22.1256 23.4629 20.9436C23.4622 19.1578 22.1947 17.8168 20.3047 17.5978ZM17.6924 16.9558H15.3067V12.9673H18.1447C19.7017 12.9673 20.5589 13.6506 20.5589 14.8911C20.5597 16.2223 19.5412 16.9558 17.6924 16.9558ZM15.3067 18.6253H18.1259C20.1629 18.6253 21.1949 19.3611 21.1949 20.8123C21.1949 22.2613 20.1772 23.0271 18.2512 23.0271H15.3067V18.6253Z" fill="white"/>
</svg>
