<svg width="30" height="30" viewBox="0 0 30 30" fill="none" xmlns="http://www.w3.org/2000/svg">
<path d="M24.917 16.2219C23.9557 16.2269 23.1232 16.4575 22.4257 16.8019C22.1707 16.2925 21.912 15.8444 21.8688 15.5112C21.8182 15.1225 21.7595 14.89 21.8207 14.4269C21.882 13.9637 22.1501 13.3075 22.1463 13.2581C22.1426 13.2087 22.0863 12.9731 21.532 12.9687C20.9776 12.965 20.5032 13.0756 20.4476 13.2219C20.392 13.3681 20.2851 13.6975 20.2188 14.0412C20.122 14.5437 19.112 16.3369 18.5388 17.2744C18.3513 16.9081 18.192 16.5856 18.1588 16.3306C18.1082 15.9419 18.0495 15.7094 18.1107 15.2462C18.172 14.7831 18.4401 14.1269 18.4363 14.0775C18.4326 14.0281 18.3763 13.7925 17.822 13.7881C17.2676 13.7844 16.7932 13.895 16.7376 14.0412C16.682 14.1875 16.622 14.5294 16.5088 14.8606C16.3951 15.1912 15.0532 18.1819 14.7013 18.9575C14.522 19.3525 14.3663 19.67 14.2563 19.8862L14.2557 19.885C14.2557 19.885 14.2488 19.8994 14.2376 19.9237C14.1432 20.1081 14.0876 20.21 14.0876 20.21C14.0876 20.21 14.0882 20.2112 14.0895 20.2137C14.0145 20.3494 13.9345 20.475 13.8951 20.475C13.8676 20.475 13.812 20.1144 13.907 19.6194C14.107 18.5819 14.5863 16.9644 14.582 16.9081C14.5795 16.8794 14.6713 16.5975 14.2688 16.45C13.8776 16.3069 13.7382 16.5456 13.7026 16.5462C13.6682 16.5469 13.6426 16.6306 13.6426 16.6306C13.6426 16.6306 14.0782 14.8112 12.8113 14.8112C12.0188 14.8112 10.9213 15.6781 10.3807 16.4637C10.0395 16.65 9.30883 17.0487 8.53446 17.4744C8.23696 17.6381 7.93321 17.805 7.64508 17.9637C7.62571 17.9419 7.60571 17.9206 7.58571 17.8987C6.04883 16.2594 3.20883 15.1 3.32883 12.8956C3.37258 12.0944 3.65133 9.98436 8.78696 7.42561C12.9938 5.32936 16.362 5.90624 16.9438 7.18436C17.7751 9.01124 15.1438 12.4056 10.7751 12.8956C9.11071 13.0825 8.23383 12.4369 8.01571 12.1969C7.78633 11.9437 7.75196 11.9325 7.66633 11.98C7.52696 12.0575 7.61508 12.2806 7.66633 12.4137C7.79696 12.7531 8.33196 13.355 9.24446 13.655C10.0476 13.9187 12.002 14.0631 14.3651 13.1487C17.0126 12.125 19.0795 9.27624 18.472 6.89561C17.8545 4.47436 13.8395 3.67811 10.0395 5.02811C7.77508 5.83186 5.32696 7.09311 3.56633 8.73936C1.47321 10.6969 1.13946 12.4012 1.27696 13.1131C1.76571 15.6431 5.25258 17.2906 6.64883 18.5112C6.58008 18.5494 6.51508 18.585 6.45633 18.6175C5.75633 18.9637 3.09821 20.355 2.43321 21.8244C1.67883 23.4912 2.55321 24.6875 3.13196 24.8487C4.92508 25.3475 6.76508 24.45 7.75446 22.975C8.74321 21.5006 8.62258 19.58 8.16883 18.7037C8.16321 18.6931 8.15696 18.6825 8.15133 18.6712C8.33196 18.5644 8.51633 18.4556 8.69883 18.3481C9.05508 18.1387 9.40508 17.9437 9.70821 17.7787C9.53821 18.2437 9.41383 18.8019 9.34946 19.6075C9.27321 20.5537 9.66133 21.7769 10.1688 22.2581C10.3926 22.47 10.6613 22.475 10.8313 22.475C11.422 22.475 11.6913 21.9837 11.9882 21.4025C12.352 20.69 12.6751 19.86 12.6751 19.86C12.6751 19.86 12.2701 22.1012 13.3738 22.1012C13.7763 22.1012 14.1807 21.5794 14.3613 21.3137C14.362 21.3169 14.362 21.3181 14.362 21.3181C14.362 21.3181 14.3726 21.3006 14.3932 21.2662C14.4351 21.2025 14.4588 21.1619 14.4588 21.1619C14.4588 21.1619 14.4595 21.1575 14.4607 21.15C14.6226 20.8694 14.9813 20.2294 15.5188 19.1737C16.2138 17.81 16.8801 16.1012 16.8801 16.1012C16.8801 16.1012 16.942 16.5187 17.1451 17.21C17.2645 17.6162 17.5182 18.0656 17.7188 18.4969C17.5576 18.7206 17.4588 18.8487 17.4588 18.8487C17.4588 18.8487 17.4595 18.8512 17.4613 18.8556C17.3326 19.0269 17.1882 19.2112 17.037 19.3912C16.4882 20.0444 15.8351 20.7906 15.7476 21.0056C15.6445 21.2594 15.6688 21.4456 15.8682 21.5962C16.0138 21.7056 16.2726 21.7231 16.5432 21.705C17.0363 21.6719 17.3826 21.5494 17.5538 21.475C17.8207 21.3806 18.1313 21.2325 18.4226 21.0181C18.9607 20.6225 19.2851 20.0569 19.2538 19.3069C19.2363 18.8937 19.1051 18.4844 18.9382 18.0981C18.987 18.0281 19.0357 17.9569 19.0851 17.8856C19.9332 16.6456 20.5913 15.2831 20.5913 15.2831C20.5913 15.2831 20.6532 15.7006 20.8563 16.3919C20.9588 16.7412 21.162 17.1231 21.3445 17.4969C20.547 18.145 20.0526 18.8981 19.8807 19.3919C19.5632 20.3056 19.812 20.7194 20.2782 20.8137C20.4895 20.8562 20.7882 20.7594 21.0126 20.6644C21.292 20.5719 21.6276 20.4175 21.9413 20.1869C22.4795 19.7912 22.997 19.2375 22.9657 18.4881C22.9513 18.1469 22.8588 17.8081 22.7332 17.4831C23.4095 17.2012 24.2845 17.045 25.3995 17.175C27.7913 17.4544 28.2601 18.9475 28.1707 19.5725C28.0807 20.1975 27.5795 20.5412 27.4113 20.645C27.2438 20.7487 27.1926 20.785 27.2063 20.8619C27.227 20.9737 27.3045 20.97 27.4476 20.9456C27.6445 20.9125 28.7032 20.4375 28.7488 19.2837C28.8057 17.8175 27.4026 16.2087 24.917 16.2219ZM6.48133 22.4369C5.68883 23.3012 4.58258 23.6275 4.10758 23.3525C3.59508 23.0556 3.79821 21.7831 4.77008 20.8656C5.36258 20.3069 6.12758 19.7919 6.63508 19.475C6.75071 19.4056 6.92008 19.3037 7.12633 19.18C7.16071 19.1606 7.18008 19.15 7.18008 19.15L7.17946 19.1487C7.21946 19.125 7.26008 19.1006 7.30196 19.075C7.65633 20.3806 7.31321 21.53 6.48133 22.4369ZM12.2532 18.5137C11.9776 19.1862 11.4001 20.9075 11.0482 20.815C10.7463 20.7356 10.5626 19.4275 10.9882 18.14C11.202 17.4919 11.6595 16.7175 11.9282 16.4169C12.3607 15.9331 12.837 15.775 12.9526 15.9712C13.0995 16.2212 12.4263 18.0919 12.2532 18.5137ZM17.0213 20.7887C16.9045 20.85 16.797 20.8881 16.7476 20.8587C16.7107 20.8369 16.7957 20.7562 16.7957 20.7562C16.7957 20.7562 17.392 20.1144 17.627 19.8225C17.7638 19.6525 17.922 19.4506 18.0945 19.2256C18.0957 19.2481 18.0963 19.2706 18.0963 19.2925C18.0951 20.0612 17.3526 20.58 17.0213 20.7887ZM20.6945 19.9512C20.607 19.8894 20.622 19.6887 20.9088 19.0631C21.0213 18.8175 21.2788 18.4044 21.7251 18.0094C21.777 18.1719 21.8082 18.3275 21.8076 18.4725C21.802 19.44 21.112 19.8012 20.6945 19.9512Z" fill="#F06292"/>
</svg>
